<svg width="69" height="49" viewBox="0 0 69 49" fill="none" xmlns="http://www.w3.org/2000/svg">
<rect width="69" height="49" rx="5" fill="#F7F7F7"/>
<path fill-rule="evenodd" clip-rule="evenodd" d="M29 22C33.4183 22 37 18.4183 37 14C37 9.58172 33.4183 6 29 6C24.5817 6 21 9.58172 21 14C21 18.4183 24.5817 22 29 22Z" fill="#858585"/>
<path fill-rule="evenodd" clip-rule="evenodd" d="M34.0908 20.1714C35.474 21.3137 37.2477 22 39.1817 22C43.6 22 47.1817 18.4183 47.1817 14C47.1817 9.58172 43.6 6 39.1817 6C37.2477 6 35.474 6.68628 34.0908 7.8286C35.8676 9.29593 36.9999 11.5157 36.9999 14C36.9999 16.4843 35.8676 18.7041 34.0908 20.1714Z" fill="#CCCCCC"/>
<path fill-rule="evenodd" clip-rule="evenodd" d="M34.0907 7.82861C32.314 9.29595 31.1816 11.5157 31.1816 14C31.1816 16.4843 32.314 18.7041 34.0907 20.1714C35.8675 18.7041 36.9998 16.4843 36.9998 14C36.9998 11.5157 35.8675 9.29595 34.0907 7.82861Z" fill="#858585"/>
<mask id="mask0_221_3053" style="mask-type:alpha" maskUnits="userSpaceOnUse" x="31" y="7" width="6" height="14">
<path fill-rule="evenodd" clip-rule="evenodd" d="M34.0907 7.82861C32.314 9.29595 31.1816 11.5157 31.1816 14C31.1816 16.4843 32.314 18.7041 34.0907 20.1714C35.8675 18.7041 36.9998 16.4843 36.9998 14C36.9998 11.5157 35.8675 9.29595 34.0907 7.82861Z" fill="white"/>
</mask>
<g mask="url(#mask0_221_3053)">
<path fill-rule="evenodd" clip-rule="evenodd" d="M30.4546 8.18176H37.7274V8.90904H30.4546V8.18176ZM30.4546 9.63636H37.7273V10.3636H30.4546V9.63636ZM37.7273 11.0909H30.4546V11.8182H37.7273V11.0909ZM30.4546 12.5455H37.7273V13.2727H30.4546V12.5455ZM37.7273 14H30.4546V14.7273H37.7273V14ZM30.4546 15.4545H37.7273V16.1818H30.4546V15.4545ZM37.7273 16.9091H30.4546V17.6364H37.7273V16.9091ZM30.4546 18.3636H37.7273V19.0909H30.4546V18.3636ZM37.7273 19.8182H30.4546V20.5455H37.7273V19.8182Z" fill="#CCCCCC"/>
</g>
<path fill-rule="evenodd" clip-rule="evenodd" d="M40.9995 26.4879C40.4271 26.2546 39.5267 26 38.4051 26C35.5425 26 33.5274 27.5778 33.5107 29.8367C33.4925 31.5075 34.9486 32.4396 36.0464 32.995C37.1746 33.5643 37.5537 33.9286 37.5492 34.4376C37.5414 35.2162 36.6487 35.5729 35.8162 35.5729C34.657 35.5729 34.0411 35.3973 33.0889 34.9633L32.7165 34.7782L32.3116 37.3804C32.9867 37.7042 34.2383 37.9852 35.5373 38C38.5796 38 40.5564 36.4415 40.5796 34.0292C40.59 32.7042 39.8185 31.6996 38.1475 30.8704C37.1357 30.3315 36.5147 29.9744 36.5218 29.4288C36.5225 28.9455 37.0465 28.4284 38.1805 28.4284C39.1276 28.4126 39.8132 28.6387 40.3474 28.875L40.6074 29.008L40.9995 26.4879ZM27.6015 37.8276L29.4129 26.2026H32.3082L30.4971 37.8276H27.6015ZM46.0084 30.4568C46.0084 30.4568 45.0949 33.0379 44.8549 33.7061H47.2587C47.1442 33.1249 46.5886 30.3502 46.5886 30.3502L46.3932 29.3476C46.316 29.5776 46.2084 29.8823 46.1265 30.1143L46.1262 30.1152L46.126 30.1156C46.0529 30.3225 46.0004 30.4712 46.0084 30.4568ZM48.427 26.2144H46.1894C45.4953 26.2144 44.9758 26.4201 44.6718 27.1781L40.3719 37.8318H43.413C43.413 37.8318 43.9092 36.3986 44.0218 36.084C44.1777 36.084 44.9131 36.0854 45.6926 36.0868H45.6926L45.6931 36.0868C46.5719 36.0884 47.5068 36.09 47.7303 36.09C47.8171 36.4957 48.0829 37.8318 48.0829 37.8318H50.7702L48.427 26.2144ZM25.1724 26.2124L22.3385 34.1379L22.0349 32.5268L21.0203 27.1853C20.8453 26.4486 20.3365 26.2302 19.7077 26.2045H15.0386L15 26.4453C16.1359 26.7464 17.1517 27.1806 18.0419 27.7205L20.6167 37.8175L23.681 37.8156L28.2407 26.2124H25.1724Z" fill="#3D3D3D"/>
</svg>
